<svg width="160" height="160" viewBox="0 0 691 160" fill="none" xmlns="http://www.w3.org/2000/svg">
<path fill-rule="evenodd" clip-rule="evenodd" d="M561.683 71.2208C561.683 68.5659 562.084 51.6688 562.084 48.5384C562.084 45.408 564.158 39.9654 570.716 33.5638C577.275 27.1616 583.633 26.0314 590.676 23.6228C597.719 21.2156 600.039 21.8013 606.287 21.8013C612.534 21.8013 612.788 21.5742 622.065 24.1474C631.342 26.7207 637.866 30.8578 643.242 35.4677C648.618 40.0776 648.488 44.2692 649.565 48.3903C650.641 52.5128 650.641 62.5435 650.641 71.0727C658.979 78.7832 660.181 82.4501 660.181 96.8523C660.181 111.255 652.839 121.447 647.572 125.316C642.304 129.184 644.623 128.361 641.583 128.688C638.544 129.014 635.182 126.646 635.182 126.646L635.061 73.4122L639.916 70.4166C639.916 70.4166 640.579 53.9399 640.579 50.7225C640.579 47.5058 637.773 42.2996 636.087 39.9654C634.4 37.6319 629.158 35.4677 623.157 33.5638C617.156 31.6593 614.042 31.2177 606.287 31.2482C598.531 31.2794 596.21 31.2582 588.297 33.5638C580.385 35.8688 581.296 36.0129 577.165 39.9654C573.035 43.9179 571.379 47.4892 571.481 50.9264C571.582 54.3636 572.015 71.3151 572.015 71.3151L578.084 74.822L577.165 124.824C577.165 124.824 574.537 127.606 571.582 128.051C568.627 128.496 566.525 126.91 561.683 123.406C556.841 119.901 551.893 112.053 551.893 98.0655C551.893 84.0784 551.923 78.7831 561.683 71.2208Z" fill="#FA58B6"/>
<path fill-rule="evenodd" clip-rule="evenodd" d="M582.579 93.1382L587.635 77.5354L598.073 108.066L606.41 66.7098L613.589 108.181L624.127 77.8156L630.238 93.0725L629.721 112.788L624.579 93.9809L614.163 124.113L606.208 93.7584L598.397 124.028L588.147 93.69L582.537 112.69L582.579 93.1382Z" fill="#FA58B6"/>
</svg>
