<svg width="55" height="55" viewBox="0 0 55 55" fill="none" xmlns="http://www.w3.org/2000/svg">
<path d="M27.5027 0.416667C42.4608 0.416667 54.586 12.5419 54.586 27.5C54.586 42.4581 42.4608 54.5833 27.5027 54.5833C12.5446 54.5833 0.419374 42.4581 0.419374 27.5C0.419374 12.5419 12.5446 0.416667 27.5027 0.416667V0.416667ZM27.5027 4.47917C21.3972 4.47917 15.5418 6.90457 11.2245 11.2218C6.90728 15.5391 4.48187 21.3945 4.48187 27.5C4.48187 33.6055 6.90728 39.4609 11.2245 43.7782C15.5418 48.0954 21.3972 50.5208 27.5027 50.5208C33.6082 50.5208 39.4637 48.0954 43.7809 43.7782C48.0981 39.4609 50.5235 33.6055 50.5235 27.5C50.5235 21.3945 48.0981 15.5391 43.7809 11.2218C39.4637 6.90457 33.6082 4.47917 27.5027 4.47917V4.47917ZM26.5467 15.456L26.7444 15.2285C27.0883 14.8845 27.5443 14.6754 28.0294 14.6391C28.5144 14.6028 28.9964 14.7418 29.3877 15.0308L29.6152 15.2285L40.4513 26.0619C40.796 26.406 41.0056 26.8625 41.0419 27.3482C41.0782 27.8339 40.9387 28.3164 40.649 28.7079L40.4513 28.9381L29.6125 39.7715C29.2501 40.1349 28.7635 40.3476 28.2505 40.3669C27.7376 40.3862 27.2364 40.2106 26.8477 39.8754C26.459 39.5402 26.2116 39.0703 26.1552 38.5601C26.0989 38.05 26.2378 37.5374 26.544 37.1254L26.7417 36.8979L34.1138 29.5285H15.9896C15.4987 29.5285 15.0245 29.3508 14.6546 29.0281C14.2846 28.7055 14.044 28.2598 13.9773 27.7735L13.9583 27.5C13.9584 27.0087 14.1366 26.5342 14.4598 26.1642C14.7829 25.7942 15.2293 25.5539 15.716 25.4877L15.9896 25.4688H34.1083L26.7417 18.1021C26.3981 17.7578 26.1894 17.3017 26.1536 16.8166C26.1178 16.3315 26.2573 15.8497 26.5467 15.4588L26.7444 15.2313L26.5467 15.4588V15.456Z" fill="#F8F8F8"/>
</svg>
